<mxfile host="app.diagrams.net" modified="2020-09-14T03:52:47.361Z" agent="5.0 (Windows NT 10.0; Win64; x64) AppleWebKit/537.36 (KHTML, like Gecko) Chrome/85.0.4183.102 Safari/537.36" etag="0ZIPHQqDCFP7EnLXg30z" version="13.6.10" type="github">
  <diagram id="CJ3Elm3edVBWcNrxIBuD" name="Page-1">
    <mxGraphModel dx="1005" dy="598" grid="1" gridSize="10" guides="1" tooltips="1" connect="1" arrows="1" fold="1" page="1" pageScale="1" pageWidth="850" pageHeight="1100" math="0" shadow="0">
      <root>
        <mxCell id="0" />
        <mxCell id="1" parent="0" />
      </root>
    </mxGraphModel>
  </diagram>
</mxfile>
